<svg width="19" height="19" viewBox="0 0 19 19" fill="none" xmlns="http://www.w3.org/2000/svg">
<path d="M1.1875 9.5C1.1875 11.1441 1.67502 12.7512 2.58841 14.1182C3.5018 15.4852 4.80003 16.5506 6.31894 17.1797C7.83786 17.8089 9.50922 17.9735 11.1217 17.6528C12.7342 17.332 14.2153 16.5403 15.3778 15.3778C16.5403 14.2153 17.332 12.7342 17.6528 11.1217C17.9735 9.50922 17.8089 7.83786 17.1797 6.31894C16.5506 4.80003 15.4852 3.5018 14.1182 2.58841C12.7512 1.67502 11.1441 1.1875 9.5 1.1875C7.29539 1.1875 5.18107 2.06328 3.62217 3.62217C2.06328 5.18107 1.1875 7.29539 1.1875 9.5ZM4.75 8.90625H11.9641L8.65094 5.57709L9.5 4.75L14.25 9.5L9.5 14.25L8.65094 13.4027L11.9641 10.0938H4.75V8.90625Z" fill="white"/>
</svg>
