<svg width="105" height="279" viewBox="0 0 105 279" fill="none" xmlns="http://www.w3.org/2000/svg">
<path d="M98.004 101.086C95.9785 102.447 93.7695 103.514 91.4434 104.255C92.2672 103.364 92.9607 102.361 93.5032 101.276C93.8196 100.717 93.9122 100.059 93.7624 99.434C93.6126 98.8092 93.2315 98.2642 92.6956 97.9082C92.2056 97.6546 91.6703 98.9223 89.8917 100.289C87.6232 102.028 85.8084 102.336 83.9028 104.762C83.186 105.668 79.9556 107.216 75.0556 107.216C70.1556 107.216 66.172 107.062 66.172 107.062C66.172 107.062 71.0357 98.6416 73.4313 92.9736C75.8269 87.3056 80.2187 74.7925 80.0009 70.6456C79.5926 62.5691 69.4932 61.9082 64.6294 62.6959C64.6294 62.6959 54.0309 104.002 51.0183 113.029C48.0057 122.056 58.0689 119.711 65.4461 119.367C69.9192 119.172 74.3733 118.667 78.776 117.855C82.7514 117.455 86.6934 116.774 90.5723 115.818C101.162 113.418 104.41 110.032 104.864 105.405C105.663 98.044 102.886 97.9082 98.004 101.086Z" fill="#B16668"/>
<path d="M2.48109 231.622C1.9185 231.333 0.348688 233.107 0.0946137 233.786C-0.102447 235.143 0.00920514 236.526 0.421282 237.834C0.953046 239.856 1.15526 241.95 1.02018 244.036C0.744196 246.933 1.00878 249.855 1.80053 252.656C2.82591 256.187 6.41926 262.615 14.7674 262.615C19.8308 262.615 20.72 260.569 20.72 259.401L2.48109 231.622Z" fill="#455A64"/>
<path d="M17.9164 233.071C16.8456 235.416 14.8947 242.207 17.8075 247.984C19.7584 251.877 20.6749 255.644 19.6223 258.849C18.5243 262.19 6.42857 256.975 4.94042 254.385C3.44303 251.753 2.66394 248.774 2.68096 245.747C2.58115 243.031 3.0893 241.32 2.78986 239.319C2.47227 237.146 1.36523 234.438 1.98227 232.537C2.31801 231.496 4.03301 229.938 5.6119 228.707C7.1908 227.476 8.47932 226.534 9.24154 226.987L8.72431 227.729C9.17864 228.652 9.84757 229.453 10.6753 230.065C11.0564 230.373 10.8114 232.148 11.3104 232.338C11.8095 232.528 11.9093 231.088 12.8984 230.907C13.8541 230.761 14.8317 230.886 15.7192 231.269C16.6068 231.652 17.3682 232.276 17.9164 233.071Z" fill="#DF2053"/>
<path opacity="0.3" d="M17.9164 233.071C16.8456 235.416 14.8947 242.207 17.8075 247.984C19.7584 251.877 20.6749 255.644 19.6223 258.849C18.5243 262.19 6.42857 256.975 4.94042 254.385C3.44303 251.753 2.66394 248.774 2.68096 245.747C2.58115 243.031 3.0893 241.32 2.78986 239.319C2.47227 237.146 1.36523 234.438 1.98227 232.537C2.31801 231.496 4.03301 229.938 5.6119 228.707C7.1908 227.476 8.47932 226.534 9.24154 226.987L8.72431 227.729C9.17864 228.652 9.84757 229.453 10.6753 230.065C11.0564 230.373 10.8114 232.148 11.3104 232.338C11.8095 232.528 11.9093 231.088 12.8984 230.907C13.8541 230.761 14.8317 230.886 15.7192 231.269C16.6068 231.652 17.3682 232.276 17.9164 233.071Z" fill="black"/>
<path d="M9.57699 237.942C9.43445 237.927 9.29021 237.945 9.15609 237.995C9.02196 238.046 8.90179 238.128 8.8054 238.234C8.709 238.34 8.63915 238.467 8.60156 238.605C8.56396 238.743 8.55971 238.888 8.58914 239.028C8.61856 239.168 8.68084 239.299 8.77085 239.411C8.86086 239.522 8.97606 239.611 9.10699 239.669C9.23791 239.727 9.38083 239.754 9.52404 239.747C9.66726 239.739 9.80668 239.698 9.93088 239.626C12.0547 239.258 14.2297 239.301 16.3372 239.753C16.531 239.199 16.5932 238.607 16.5187 238.024C14.2316 237.551 11.8746 237.524 9.57699 237.942Z" fill="white"/>
<path d="M16.301 241.818C13.9356 241.42 11.5145 241.493 9.17784 242.035C9.01664 242.138 8.89228 242.289 8.82255 242.467C8.75282 242.645 8.7413 242.841 8.78964 243.026C8.83798 243.211 8.9437 243.375 9.09166 243.497C9.23963 243.618 9.42224 243.69 9.61339 243.701C11.8634 243.201 14.1928 243.17 16.4553 243.61C16.6408 243.016 16.5854 242.372 16.301 241.818Z" fill="white"/>
<path d="M17.0449 246.109C14.429 245.525 11.7142 245.54 9.10508 246.155C8.94389 246.258 8.81953 246.409 8.7498 246.587C8.68007 246.765 8.66855 246.961 8.71688 247.145C8.76522 247.33 8.87094 247.495 9.01891 247.616C9.16687 247.738 9.3495 247.809 9.54065 247.821C12.3107 247.176 15.2052 247.304 17.907 248.192C18.161 248.119 17.7436 246.743 17.0449 246.109Z" fill="white"/>
<path d="M4.93994 254.376C4.93994 254.376 8.05236 249.722 13.6239 249.659C19.1954 249.595 20.2479 251.922 20.7289 252.755C21.2098 253.588 23.1789 258.333 19.3496 260.515C19.3496 260.515 10.1394 262.95 4.93994 254.376Z" fill="#FAFAFA"/>
<path d="M67.016 187.682C66.7982 185.808 66.5351 183.616 66.2538 181.226C68.3117 177.181 70.1504 173.028 71.7618 168.785C76.4803 156.417 78.2316 125.732 78.0138 119.267L33.7232 120.318C33.7232 126.909 33.2876 132.912 34.0317 141.459C34.9391 151.365 39.1222 166.368 42.6339 177.532C39.2311 181.452 34.4672 187.093 32.3348 190.588C28.7052 196.374 12.2266 222.695 12.2266 222.695L8.44273 228.128C7.83477 229.232 7.59884 231.749 10.1396 233.623C12.6803 235.498 16.0105 235.172 16.7818 234.239C16.7818 234.239 36.8719 214.32 48.7771 202.549C49.385 205.926 50.1836 209.792 51.1364 213.478C53.7951 223.818 59.303 238.884 62.0253 246.281C63.1521 249.293 63.9818 252.408 64.5025 255.58L65.9453 259.736L75.9268 257.473L74.112 248.835C74.112 248.835 68.4951 200.159 67.016 187.682Z" fill="#B16668"/>
<path d="M42.144 177.505L47.1166 192.417C47.1166 192.417 47.525 198.538 48.3235 202.685L46.2183 204.813C46.2183 204.813 44.9661 197.759 45.6648 192.779L42.144 177.505Z" fill="#9A4A4D"/>
<path d="M33.1697 125.017C33.1697 125.578 31.5091 139.142 33.1697 147.879C34.8302 156.616 42.9425 188.189 42.9425 188.189C42.9425 188.189 45.7827 191.358 56.1181 189.094C66.4534 186.831 67.007 184.793 67.007 184.793V181.624C71.1775 173.416 74.1448 164.653 75.8179 155.602C77.2751 146.543 78.2082 137.407 78.6127 128.24L33.1697 125.017Z" fill="#DF2053"/>
<path opacity="0.6" d="M33.1697 125.017C33.1697 125.578 31.5091 139.142 33.1697 147.879C34.8302 156.616 42.9425 188.189 42.9425 188.189C42.9425 188.189 45.7827 191.358 56.1181 189.094C66.4534 186.831 67.007 184.793 67.007 184.793V181.624C71.1775 173.416 74.1448 164.653 75.8179 155.602C77.2751 146.543 78.2082 137.407 78.6127 128.24L33.1697 125.017Z" fill="black"/>
<path opacity="0.4" d="M65.4371 179.415C65.4371 179.415 62.3791 147.825 61.4082 143.814C61.4082 143.814 68.6675 141.043 70.936 138.499C70.936 138.499 69.3299 142.057 64.1214 145.208L65.4371 179.415Z" fill="black"/>
<path d="M32.1353 133.953C38.1786 138.345 66.4353 142.573 79.13 133.329C79.2842 133.22 79.13 131.799 79.13 131.617L79.0483 123.876C78.9939 119.892 78.9334 115.908 78.8668 111.924C78.7882 107.301 78.6914 102.677 78.5765 98.053C78.4676 93.544 78.3284 89.0379 78.1591 84.5349C78.0865 82.5611 77.9988 80.5872 77.8959 78.6134C77.7477 75.5797 77.0498 72.598 75.8361 69.8126C74.7783 67.1651 72.7736 65.0034 70.2102 63.7462C68.4372 63.0889 66.566 62.7339 64.675 62.6959C63.3614 62.684 62.0486 62.7627 60.7459 62.9313C59.2759 63.049 57.8149 63.1848 56.3449 63.3297C53.3686 63.6375 50.3923 63.9907 47.4251 64.3709L46.3544 64.5068L45.4469 64.6245C41.6903 65.1134 38.9136 65.5299 38.4871 65.5842H38.4236C37.1986 65.9011 36.0553 66.1909 35.1388 66.4897C32.6253 67.2321 34.4945 66.5983 33.941 69.0158C32.3258 76.1235 34.2132 101.974 34.2132 101.974L32.1353 133.953Z" fill="#37474F"/>
<path d="M63.931 262.579C63.3503 262.824 63.7042 265.178 64.0581 265.812C64.8308 266.946 65.8884 267.857 67.1251 268.455C68.8832 269.353 70.406 270.649 71.5714 272.24C73.5786 274.666 76.0894 276.627 78.9305 277.99C80.788 278.727 82.7796 279.067 84.7769 278.989C86.7743 278.911 88.7331 278.416 90.5272 277.537C94.3746 275.726 94.6741 274.621 94.4472 273.1L63.931 262.579Z" fill="#455A64"/>
<path d="M75.3096 251.651C76.4257 253.996 79.3385 260.234 84.0389 262.887C87.7683 264.997 92.7318 267.297 94.5194 270.185C96.307 273.073 89.6376 275.88 86.6341 276.025C84.2929 276.134 81.1896 276.387 78.7577 275.119C77.5492 274.502 76.4061 273.765 75.3459 272.919C73.2225 271.253 71.6164 269.08 70.0648 267.749C68.5131 266.418 65.3644 265.25 64.3027 263.539C63.7129 262.634 63.6221 260.279 63.6947 258.278C63.7492 256.468 63.4679 254.765 64.3118 254.476L64.5477 255.508C65.7141 255.54 66.8808 255.462 68.0322 255.272C68.5131 255.182 69.7199 256.522 70.1918 256.259C70.6636 255.997 69.6201 254.992 70.1192 254.113C71.7525 251.234 75.3096 251.651 75.3096 251.651Z" fill="#DF2053"/>
<path opacity="0.3" d="M75.3096 251.651C76.4257 253.996 79.3385 260.234 84.0389 262.887C87.7683 264.997 92.7318 267.297 94.5194 270.185C96.307 273.073 89.6376 275.88 86.6341 276.025C84.2929 276.134 81.1896 276.387 78.7577 275.119C77.5492 274.502 76.4061 273.765 75.3459 272.919C73.2225 271.253 71.6164 269.08 70.0648 267.749C68.5131 266.418 65.3644 265.25 64.3027 263.539C63.7129 262.634 63.6221 260.279 63.6947 258.278C63.7492 256.468 63.4679 254.765 64.3118 254.476L64.5477 255.508C65.7141 255.54 66.8808 255.462 68.0322 255.272C68.5131 255.182 69.7199 256.522 70.1918 256.259C70.6636 255.997 69.6201 254.992 70.1192 254.113C71.7525 251.234 75.3096 251.651 75.3096 251.651Z" fill="black"/>
<path d="M83.4494 262.516C81.1578 263.203 79.1477 264.606 77.7146 266.518C77.5969 266.71 77.555 266.938 77.5969 267.159C77.6388 267.38 77.7616 267.577 77.9414 267.713C78.1336 267.83 78.3627 267.872 78.5841 267.83C78.8055 267.789 79.0034 267.666 79.1392 267.487C79.9257 266.458 80.9154 265.602 82.047 264.972C83.1787 264.341 84.4281 263.949 85.7179 263.82C85.45 263.458 85.1102 263.156 84.7199 262.932C84.3296 262.707 83.8971 262.566 83.4494 262.516Z" fill="white"/>
<path d="M80.1462 259.564C77.9681 260.172 76.0317 261.437 74.6019 263.186C74.4747 263.371 74.4209 263.597 74.4511 263.819C74.4813 264.042 74.5932 264.245 74.7653 264.39C74.9138 264.503 75.0958 264.563 75.2825 264.562C75.415 264.56 75.5454 264.529 75.6645 264.471C75.7837 264.413 75.8887 264.33 75.9721 264.227C77.3969 262.562 79.3504 261.434 81.5073 261.031C81.4355 260.686 81.2708 260.367 81.031 260.109C80.7912 259.85 80.4853 259.662 80.1462 259.564Z" fill="white"/>
<path d="M78.6943 257.681C78.7461 257.348 78.6729 257.008 78.4887 256.725C78.3044 256.443 78.0222 256.238 77.6961 256.151C75.4312 256.654 73.3849 257.862 71.8524 259.6C71.7493 259.727 71.6842 259.88 71.6648 260.041C71.6454 260.203 71.6725 260.367 71.7428 260.514C71.8132 260.661 71.9239 260.785 72.0622 260.872C72.2005 260.959 72.3606 261.004 72.5239 261.004C72.6519 261.001 72.7779 260.972 72.8936 260.917C73.0093 260.862 73.1122 260.784 73.1954 260.687C74.6386 259.098 76.5753 258.039 78.6943 257.681Z" fill="white"/>
<path d="M78.7578 275.119C78.7578 275.119 79.2024 269.153 84.0662 266.364C88.9299 263.575 90.9806 265.594 91.8154 266.092C92.6503 266.59 96.7336 269.307 94.4469 273.1C94.4469 273.1 88.1858 279.601 78.7578 275.119Z" fill="#FAFAFA"/>
<path d="M42.7974 42.3599C42.7974 42.3599 44.8209 51.8216 45.6285 53.379C46.1687 54.3345 47.0552 55.0473 48.1057 55.3709L47.9696 48.716L42.7974 42.3599Z" fill="#263238"/>
<path d="M45.3288 28.8055C44.6234 28.724 43.9086 28.8039 43.2388 29.0392C42.569 29.2746 41.9618 29.6591 41.4632 30.1637C39.8027 31.8568 40.7282 37.1627 42.7971 42.3599L46.5992 42.7945L45.3288 28.8055Z" fill="#263238"/>
<path d="M47.7427 42.7945C46.9805 43.2563 45.9279 41.7895 44.9479 40.8116C43.9679 39.8337 40.9462 38.4846 39.4127 41.717C37.8791 44.9494 40.7647 49.3317 43.1784 50.0832C47.3434 51.387 47.9695 48.7251 47.9695 48.7251L48.2418 63.9997C52.6064 71.877 67.3609 67.8478 61.8529 62.6235V58.7573C63.7095 59.0529 65.5928 59.147 67.4698 59.0379C70.5277 58.5671 72.4515 56.1587 73.3861 52.8538C74.8742 47.539 75.4731 43.4464 74.5476 32.8076C73.5131 21.3086 59.4029 21.1999 52.2253 25.7271C45.0477 30.2542 47.7427 42.7945 47.7427 42.7945Z" fill="#B16668"/>
<path d="M43.9042 37.8689C44.122 38.7744 44.3216 40.2231 45.0475 40.9112C45.9549 41.8166 47.4159 44.2703 47.7698 44.2613C49.7933 44.2613 50.129 35.7864 50.492 34.3015C50.6423 33.8814 50.9071 33.5114 51.2565 33.2331C51.606 32.9548 52.0262 32.7792 52.4701 32.7261C53.3613 32.6389 54.2608 32.7063 55.1288 32.9253C58.7745 33.4926 62.4693 33.6807 66.1539 33.4866C68.7854 33.4142 71.4713 31.9836 73.8306 30.8337C77.3059 29.1315 79.1934 24.9031 77.0609 21.3629C76.4413 20.3861 75.5256 19.632 74.4468 19.2102C73.3681 18.7885 72.1827 18.7211 71.063 19.0178C70.7625 17.9693 70.1587 17.0326 69.3271 16.325C68.4955 15.6174 67.4732 15.1703 66.3882 15.0398C65.3032 14.9093 64.2036 15.1012 63.2274 15.5914C62.2511 16.0816 61.4415 16.8483 60.9 17.7955C60.0001 17.0742 58.9243 16.6044 57.7828 16.4342C56.6412 16.264 55.4748 16.3994 54.4029 16.8267C53.346 17.2907 52.4619 18.0745 51.8757 19.0673C51.2895 20.06 51.0309 21.2114 51.1363 22.3589C50.2074 21.8584 49.1528 21.6382 48.1008 21.725C47.0487 21.8118 46.0447 22.2019 45.2109 22.8478C44.3935 23.5147 43.7414 24.3609 43.3054 25.3205C42.8695 26.28 42.6614 27.327 42.6973 28.38C42.7498 31.5776 43.1545 34.7597 43.9042 37.8689Z" fill="#263238"/>
<path d="M40.6103 33.5228C40.6103 33.5228 44.739 29.9011 54.8929 28.3709C65.0468 26.8408 73.3042 28.3709 74.9557 30.1818C75.9176 32.1285 75.482 34.4011 74.7833 36.4202C74.7833 36.4202 74.7198 34.4102 64.2029 34.4102C53.686 34.4102 44.1219 38.0319 41.8443 39.7522C41.8443 39.707 39.594 36.375 40.6103 33.5228Z" fill="#DF2053"/>
<path d="M75.482 32.1647C75.4642 31.9029 75.4278 31.6427 75.3732 31.386C65.9452 27.4474 50.8731 28.8599 40.3744 34.5822C40.3563 34.8414 40.3563 35.1016 40.3744 35.3609C50.8277 29.4846 66.1539 28.054 75.482 32.1647Z" fill="white"/>
<path d="M40.8735 37.7603C40.9643 37.9866 41.0459 38.1949 41.1367 38.3941C51.2634 32.7532 65.8727 31.2412 75.2281 34.8629C75.2825 34.6365 75.3279 34.4192 75.3642 34.1929C65.8364 30.5711 51.1273 32.0651 40.8735 37.7603Z" fill="white"/>
<path d="M61.8167 58.7482C61.8167 58.7482 54.9476 57.4172 52.5974 56.1043C51.1907 55.3771 50.0387 54.2403 49.2944 52.8448C49.6531 54.2366 50.2888 55.5422 51.1637 56.6838C52.915 58.9202 61.8167 60.5591 61.8167 60.5591V58.7482Z" fill="#9A4A4D"/>
<path d="M59.8931 41.7713C59.8824 42.0392 59.7931 42.298 59.6362 42.5155C59.4793 42.7331 59.2618 42.8999 59.0106 42.9951C58.7595 43.0903 58.4859 43.1097 58.2238 43.051C57.9617 42.9923 57.7227 42.858 57.5364 42.6648C57.3502 42.4716 57.225 42.228 57.1764 41.9644C57.1278 41.7008 57.1579 41.4287 57.2631 41.182C57.3682 40.9353 57.5437 40.7249 57.7676 40.577C57.9916 40.429 58.2543 40.35 58.5229 40.3498C58.7064 40.3533 58.8875 40.3929 59.0557 40.4663C59.2238 40.5396 59.3759 40.6453 59.5031 40.7773C59.6304 40.9093 59.7303 41.0651 59.7972 41.2356C59.8641 41.4062 59.8967 41.5882 59.8931 41.7713Z" fill="#263238"/>
<path d="M58.5228 37.2442L55.5918 38.8649C55.3847 38.463 55.3408 37.9969 55.4692 37.5635C55.5977 37.1301 55.8886 36.7628 56.2815 36.5379C56.474 36.4322 56.686 36.3666 56.9046 36.345C57.1233 36.3235 57.3441 36.3464 57.5536 36.4124C57.7631 36.4784 57.957 36.5862 58.1236 36.7292C58.2902 36.8721 58.426 37.0473 58.5228 37.2442Z" fill="#263238"/>
<path d="M61.9529 51.215L65.0744 52.383C65.0059 52.5922 64.8962 52.7856 64.7517 52.9517C64.6072 53.1179 64.4307 53.2535 64.2328 53.3506C64.0349 53.4476 63.8196 53.5041 63.5994 53.5168C63.3793 53.5294 63.1588 53.498 62.951 53.4243C62.5307 53.2562 62.1919 52.9322 62.0058 52.5203C61.8197 52.1084 61.8007 51.6406 61.9529 51.215Z" fill="#9A4A4D"/>
<path d="M71.9706 38.041L68.8945 36.6647C68.973 36.4587 69.0927 36.2709 69.2463 36.1127C69.4 35.9544 69.5843 35.8291 69.7882 35.7444C69.992 35.6596 70.211 35.6172 70.4318 35.6198C70.6526 35.6224 70.8705 35.6698 71.0723 35.7593C71.4815 35.958 71.8009 36.3028 71.9673 36.7254C72.1336 37.148 72.1348 37.6175 71.9706 38.041Z" fill="#263238"/>
<path d="M71.1265 41.7713C71.1158 42.0392 71.0265 42.298 70.8696 42.5155C70.7127 42.7331 70.4951 42.8999 70.244 42.9951C69.9929 43.0903 69.7193 43.1097 69.4572 43.051C69.1951 42.9923 68.956 42.858 68.7698 42.6648C68.5836 42.4716 68.4584 42.228 68.4098 41.9644C68.3612 41.7008 68.3913 41.4287 68.4965 41.182C68.6016 40.9353 68.777 40.7249 69.001 40.577C69.225 40.429 69.4877 40.35 69.7563 40.3498C69.9398 40.3533 70.1209 40.3929 70.289 40.4663C70.4572 40.5396 70.6093 40.6453 70.7365 40.7773C70.8638 40.9093 70.9637 41.0651 71.0306 41.2356C71.0975 41.4062 71.1301 41.5882 71.1265 41.7713Z" fill="#263238"/>
<path d="M63.8218 40.8206L64.2755 49.042L68.5766 47.5842L63.8218 40.8206Z" fill="#9A4A4D"/>
<path d="M49.7116 138.444C50.1226 137.111 50.4022 135.74 50.5464 134.352L50.6009 133.881C50.7246 132.575 51.1685 131.32 51.8932 130.226C52.618 129.131 53.6014 128.232 54.7568 127.606L55.0018 127.48C56.3902 126.776 57.558 125.705 58.3774 124.383C58.7967 123.64 59.0282 122.807 59.0519 121.955C59.0756 121.103 58.8908 120.258 58.5135 119.494C58.3141 119.106 58.0867 118.734 57.8329 118.38C57.5962 118.055 57.4628 117.666 57.4498 117.264C57.4369 116.862 57.5451 116.465 57.7603 116.125L59.0126 114.206L52.8331 110.222L51.5809 112.142C51.3674 112.485 51.0544 112.756 50.6832 112.917C50.3121 113.079 49.9004 113.124 49.5029 113.047C49.075 112.959 48.6414 112.902 48.2053 112.875C47.3511 112.846 46.5024 113.024 45.7326 113.395C44.9627 113.765 44.2948 114.317 43.7862 115.003C42.9194 116.294 42.4207 117.796 42.3435 119.349C42.3435 119.439 42.3435 119.521 42.3435 119.611C42.244 120.915 41.8255 122.175 41.1246 123.28C40.4238 124.385 39.462 125.302 38.3236 125.949L37.9153 126.194C36.7042 126.892 35.5672 127.711 34.5216 128.639C33.5939 129.589 32.7752 130.64 32.0807 131.771L26.2732 140.735C25.5201 141.903 25.5382 143.56 26.5001 145.434C27.3887 147.072 28.6279 148.494 30.1297 149.599C30.8314 150.142 31.5782 150.623 32.3619 151.039C33.9847 151.939 35.7829 152.48 37.634 152.623C39.7392 152.732 41.2636 152.062 42.0168 150.903L46.2181 144.411C46.7444 143.605 47.3161 142.781 47.8696 141.939C48.6066 140.843 49.2241 139.672 49.7116 138.444Z" fill="#DF2053"/>
<path opacity="0.75" d="M49.7116 138.444C50.1226 137.111 50.4022 135.74 50.5464 134.352L50.6009 133.881C50.7246 132.575 51.1685 131.32 51.8932 130.226C52.618 129.131 53.6014 128.232 54.7568 127.606L55.0018 127.48C56.3902 126.776 57.558 125.705 58.3774 124.383C58.7967 123.64 59.0282 122.807 59.0519 121.955C59.0756 121.103 58.8908 120.258 58.5135 119.494C58.3141 119.106 58.0867 118.734 57.8329 118.38C57.5962 118.055 57.4628 117.666 57.4498 117.264C57.4369 116.862 57.5451 116.465 57.7603 116.125L59.0126 114.206L52.8331 110.222L51.5809 112.142C51.3674 112.485 51.0544 112.756 50.6832 112.917C50.3121 113.079 49.9004 113.124 49.5029 113.047C49.075 112.959 48.6414 112.902 48.2053 112.875C47.3511 112.846 46.5024 113.024 45.7326 113.395C44.9627 113.765 44.2948 114.317 43.7862 115.003C42.9194 116.294 42.4207 117.796 42.3435 119.349C42.3435 119.439 42.3435 119.521 42.3435 119.611C42.244 120.915 41.8255 122.175 41.1246 123.28C40.4238 124.385 39.462 125.302 38.3236 125.949L37.9153 126.194C36.7042 126.892 35.5672 127.711 34.5216 128.639C33.5939 129.589 32.7752 130.64 32.0807 131.771L26.2732 140.735C25.5201 141.903 25.5382 143.56 26.5001 145.434C27.3887 147.072 28.6279 148.494 30.1297 149.599C30.8314 150.142 31.5782 150.623 32.3619 151.039C33.9847 151.939 35.7829 152.48 37.634 152.623C39.7392 152.732 41.2636 152.062 42.0168 150.903L46.2181 144.411C46.7444 143.605 47.3161 142.781 47.8696 141.939C48.6066 140.843 49.2241 139.672 49.7116 138.444Z" fill="white"/>
<path opacity="0.05" d="M54.7571 127.606L55.0022 127.48C56.1841 126.878 57.2094 126.01 57.9966 124.944C57.5642 125.304 57.0887 125.608 56.5811 125.85C55.1038 126.483 53.53 126.862 51.926 126.973C50.3108 127.154 48.5051 127.389 47.4979 128.666C46.4906 129.942 46.6903 131.69 47.2347 133.193C47.925 134.608 48.531 136.062 49.0495 137.548C49.1946 138.217 49.2677 138.9 49.2673 139.585C49.4397 139.223 49.6031 138.861 49.7392 138.49C50.1502 137.156 50.4298 135.785 50.574 134.397L50.6284 133.926C50.7422 132.615 51.1785 131.352 51.8988 130.25C52.619 129.147 53.6008 128.239 54.7571 127.606Z" fill="black"/>
<path opacity="0.1" d="M31.264 133.637C31.264 133.637 31.1007 133.637 30.8285 133.637L29.0137 136.416C29.9755 139.513 33.4146 143.488 37.4344 144.565C41.2002 145.552 45.2835 144.755 47.4159 142.591L48.5139 140.78L36.4363 136.045L31.264 133.637Z" fill="black"/>
<path d="M50.4103 111.743L49.7388 112.775C49.5312 113.166 49.4326 113.604 49.4534 114.046C49.4742 114.487 49.6135 114.914 49.8567 115.283C50.4752 116.342 51.3348 117.24 52.3657 117.905C53.3967 118.571 54.5702 118.985 55.7912 119.113C56.2816 119.15 56.7741 119.079 57.234 118.905C57.6052 118.774 57.9237 118.526 58.1414 118.199L58.822 117.14C58.8875 117.048 58.9395 116.947 58.9762 116.841C59.0884 116.476 59.1222 116.091 59.0753 115.712C59.0284 115.333 58.9019 114.968 58.704 114.641V114.568C58.0786 113.53 57.2206 112.65 56.1972 111.998C55.1739 111.346 54.013 110.94 52.8058 110.811C52.4252 110.765 52.0393 110.801 51.6734 110.915C51.3075 111.029 50.9698 111.218 50.6825 111.472C50.5811 111.551 50.4897 111.642 50.4103 111.743Z" fill="#DF2053"/>
<path opacity="0.1" d="M56.4628 118.027C58.7132 118.136 59.7023 116.605 58.6769 114.604C58.0596 113.546 57.2002 112.648 56.1689 111.984C55.1375 111.32 53.9635 110.908 52.7425 110.783C50.4921 110.666 49.503 112.196 50.5284 114.197C51.1469 115.255 52.0064 116.153 53.0374 116.819C54.0683 117.484 55.2418 117.898 56.4628 118.027Z" fill="black"/>
<path d="M51.1816 110.494L50.7823 111.118C50.7172 111.218 50.6624 111.324 50.619 111.435C50.5081 111.801 50.4759 112.186 50.5243 112.565C50.5728 112.945 50.7009 113.309 50.9003 113.636C51.425 114.589 52.1681 115.405 53.069 116.017C54.1661 116.836 55.47 117.334 56.8348 117.456C57.3222 117.493 57.8117 117.422 58.2685 117.248C58.526 117.154 58.7587 117.002 58.949 116.805C59.031 116.728 59.1013 116.639 59.1577 116.542L59.5751 115.899C59.746 115.449 59.8112 114.967 59.7655 114.488C59.7199 114.009 59.5647 113.547 59.312 113.138C58.6766 112.148 57.8264 111.314 56.8244 110.696C55.8223 110.079 54.6939 109.694 53.5227 109.57C53.0854 109.502 52.6379 109.552 52.2263 109.714C51.8148 109.877 51.4541 110.146 51.1816 110.494Z" fill="#DF2053"/>
<path opacity="0.5" d="M51.1999 110.476C50.2925 111.807 51.5175 114.097 53.8314 115.582C56.1453 117.067 58.7224 117.212 59.5844 115.89C60.4465 114.568 59.2668 112.268 56.9529 110.774C54.639 109.28 52.062 109.145 51.1999 110.476Z" fill="white"/>
<path d="M55.5465 109.76L54.14 111.933C54.1183 111.968 54.1001 112.004 54.0856 112.042C54.0441 112.168 54.0307 112.301 54.0464 112.432C54.0621 112.564 54.1064 112.69 54.1763 112.803C54.3923 113.168 54.6911 113.478 55.0488 113.708C55.4066 113.937 55.8132 114.08 56.2362 114.124C56.4059 114.141 56.5772 114.116 56.7352 114.052C56.8234 114.017 56.9037 113.965 56.9712 113.898C57.0002 113.872 57.0247 113.842 57.0437 113.808L58.4502 111.635C58.5377 111.5 58.5843 111.342 58.5843 111.182C58.5843 111.021 58.5377 110.864 58.4502 110.729L58.3958 110.639C58.1752 110.297 57.8805 110.008 57.5334 109.795C57.1864 109.582 56.7957 109.45 56.3904 109.407C56.2307 109.38 56.0664 109.399 55.917 109.461C55.7675 109.524 55.639 109.627 55.5465 109.76Z" fill="#DF2053"/>
<path opacity="0.5" d="M55.5465 109.76C55.2471 110.213 55.6554 111.01 56.4539 111.526C57.2524 112.042 58.1508 112.096 58.4502 111.635C58.7497 111.173 58.3413 110.376 57.5428 109.824C56.7443 109.271 55.855 109.298 55.5465 109.76Z" fill="white"/>
<path opacity="0.5" d="M56.4902 110.358C56.3813 110.521 56.4902 110.802 56.8078 110.992C57.1254 111.182 57.4158 111.191 57.5156 110.992C57.6154 110.792 57.5156 110.548 57.198 110.358C56.8804 110.168 56.59 110.195 56.4902 110.358Z" fill="#DF2053"/>
<path opacity="0.3" d="M56.4902 110.358C56.3813 110.521 56.4902 110.802 56.8078 110.992C57.1254 111.182 57.4158 111.191 57.5156 110.992C57.6154 110.792 57.5156 110.548 57.198 110.358C56.8804 110.168 56.59 110.195 56.4902 110.358Z" fill="black"/>
<path d="M45.7464 132.269C43.5142 131.934 39.5397 130.268 38.3692 128.928C38.045 128.622 37.7869 128.253 37.6106 127.843C37.4343 127.434 37.3435 126.993 37.3438 126.547C38.3253 125.994 39.2388 125.328 40.066 124.564C39.0133 123.944 37.929 123.379 36.8175 122.871C35.4836 122.373 33.1879 120.336 31.5454 118.697C27.5956 113.987 24.1187 108.901 21.1647 103.513L33.4328 88.8448C35.1318 88.6523 36.7521 88.0252 38.1368 87.0242C39.5215 86.0232 40.6237 84.6824 41.3364 83.1315C43.1512 79.6275 45.4923 71.4424 40.6921 65.2583C37.7703 65.1973 34.8716 65.7881 32.2078 66.9876C29.041 68.3096 23.8325 74.5027 19.7219 80.5058C16.1467 85.7301 6.00186 99.5742 5.6389 104.744C5.48464 106.872 8.03446 110.177 14.4317 116.868C17.2719 119.937 20.5386 123.278 24.023 126.882C26.346 129.245 30.2932 136.398 32.5436 138.879C35.7014 142.365 37.8792 143.279 40.7103 143.334C43.5414 143.388 48.7227 142.428 50.229 138.2C51.7353 133.972 49.6301 132.867 45.7464 132.269Z" fill="#B16668"/>
<path d="M26.8634 130.621C26.5401 130.117 26.3512 129.539 26.3147 128.942C26.2781 128.344 26.3952 127.748 26.6547 127.208C27.8789 124.855 29.7197 122.877 31.9812 121.486C33.6599 120.58 34.4674 121.341 34.4674 121.341C33.8084 120.003 32.8066 118.863 31.5637 118.036C31.259 117.844 30.892 117.776 30.5384 117.846C29.5809 118.038 28.6861 118.464 27.9341 119.086C26.2645 120.417 24.1774 122.654 23.5241 124.591C23.2222 125.466 23.175 126.408 23.388 127.308C24.4135 128.543 25.5798 129.655 26.8634 130.621Z" fill="#37474F"/>
<path d="M24.885 123.704L26.6998 125.515C26.8293 125.648 26.9844 125.755 27.1559 125.827C27.3274 125.9 27.5117 125.937 27.698 125.937C27.8843 125.937 28.0686 125.9 28.2401 125.827C28.4116 125.755 28.5667 125.648 28.6962 125.515L30.9647 123.115C31.2269 122.835 31.3727 122.466 31.3727 122.083C31.3727 121.7 31.2269 121.331 30.9647 121.051L29.2678 119.294C29.1398 119.16 28.9857 119.053 28.8149 118.98C28.6441 118.906 28.4601 118.869 28.2742 118.869C28.0883 118.869 27.9043 118.906 27.7335 118.98C27.5627 119.053 27.4086 119.16 27.2806 119.294L24.8669 121.739C24.6179 122.007 24.4811 122.36 24.4844 122.725C24.4878 123.09 24.6311 123.441 24.885 123.704Z" fill="#263238"/>
<path d="M24.3862 123.731L26.201 125.542C26.3305 125.676 26.4856 125.782 26.657 125.854C26.8285 125.927 27.0129 125.964 27.1992 125.964C27.3854 125.964 27.5698 125.927 27.7413 125.854C27.9128 125.782 28.0678 125.676 28.1973 125.542L30.4658 123.143C30.728 122.863 30.8738 122.494 30.8738 122.11C30.8738 121.727 30.728 121.358 30.4658 121.078L28.769 119.313C28.6403 119.179 28.486 119.073 28.3153 119.001C28.1445 118.928 27.9609 118.891 27.7754 118.891C27.5898 118.891 27.4062 118.928 27.2355 119.001C27.0647 119.073 26.9104 119.179 26.7818 119.313L24.368 121.703C24.2353 121.837 24.1305 121.996 24.0596 122.171C23.9886 122.345 23.953 122.532 23.9546 122.721C23.9563 122.909 23.9953 123.096 24.0694 123.269C24.1434 123.442 24.2511 123.599 24.3862 123.731Z" fill="#455A64"/>
<path d="M30.3387 122.02C30.3491 122.152 30.3319 122.284 30.2881 122.409C30.2444 122.533 30.1751 122.648 30.0846 122.744L27.8161 125.144C27.6552 125.308 27.4379 125.405 27.2081 125.415C26.9776 125.412 26.757 125.321 26.591 125.162L24.7762 123.351C24.6231 123.198 24.5298 122.996 24.5131 122.78C24.505 122.654 24.5234 122.528 24.5672 122.41C24.6109 122.291 24.6791 122.183 24.7672 122.092L27.1718 119.657C27.2498 119.574 27.344 119.508 27.4486 119.463C27.5531 119.417 27.6658 119.394 27.7798 119.394C28.0128 119.402 28.2337 119.499 28.3968 119.666L30.0846 121.422C30.2402 121.584 30.3334 121.796 30.3477 122.02H30.3387Z" fill="#DF2053"/>
<g opacity="0.3">
<path d="M19.976 127.606H19.849L14.8129 126.701C14.7223 126.687 14.6353 126.656 14.5569 126.609C14.4785 126.561 14.4101 126.499 14.3558 126.426C14.3014 126.352 14.2621 126.269 14.2401 126.18C14.2181 126.091 14.2139 125.999 14.2276 125.909C14.2413 125.818 14.2727 125.732 14.32 125.653C14.3673 125.575 14.4296 125.507 14.5033 125.453C14.5771 125.398 14.6608 125.359 14.7497 125.337C14.8386 125.315 14.931 125.311 15.0216 125.325L20.0668 126.23C20.237 126.258 20.3904 126.349 20.4959 126.485C20.6014 126.621 20.6511 126.792 20.635 126.964C20.6188 127.135 20.5381 127.294 20.409 127.408C20.2799 127.523 20.1122 127.584 19.9397 127.579L19.976 127.606Z" fill="black"/>
<path d="M15.2759 131.862C15.1359 131.862 14.9995 131.818 14.8856 131.737C14.7717 131.656 14.6861 131.541 14.6407 131.409C14.6048 131.323 14.5872 131.23 14.589 131.136C14.5908 131.043 14.612 130.95 14.6511 130.865C14.6903 130.78 14.7467 130.704 14.8167 130.642C14.8868 130.58 14.9689 130.533 15.0581 130.504L19.8946 128.811C19.9802 128.773 20.0727 128.754 20.1663 128.753C20.2598 128.753 20.3524 128.772 20.4383 128.809C20.5241 128.846 20.6014 128.901 20.6653 128.969C20.7291 129.037 20.7783 129.117 20.8095 129.205C20.8408 129.293 20.8535 129.387 20.847 129.48C20.8404 129.573 20.8147 129.664 20.7714 129.747C20.7281 129.829 20.6682 129.902 20.5954 129.961C20.5226 130.02 20.4385 130.063 20.3483 130.087L15.5027 131.789C15.4325 131.828 15.3554 131.852 15.2759 131.862Z" fill="black"/>
<path d="M18.1884 136.19C18.0579 136.19 17.93 136.153 17.82 136.083C17.71 136.013 17.6226 135.913 17.5681 135.794C17.5136 135.676 17.4943 135.545 17.5126 135.416C17.5309 135.287 17.5859 135.166 17.6712 135.067L21.0105 131.183C21.0687 131.115 21.1399 131.059 21.2198 131.019C21.2998 130.978 21.3869 130.954 21.4763 130.947C21.5657 130.94 21.6555 130.951 21.7406 130.979C21.8257 131.007 21.9045 131.052 21.9723 131.11C22.1077 131.229 22.1912 131.396 22.2047 131.575C22.2183 131.755 22.1609 131.932 22.0449 132.07L18.6966 135.954C18.6342 136.028 18.5565 136.088 18.4687 136.128C18.3809 136.169 18.2852 136.19 18.1884 136.19Z" fill="black"/>
<path d="M22.8704 138.499H22.7434C22.5666 138.464 22.411 138.36 22.3106 138.211C22.2102 138.061 22.1734 137.878 22.208 137.702L23.1154 132.677C23.1245 132.583 23.153 132.493 23.1991 132.41C23.2451 132.328 23.3078 132.257 23.383 132.2C23.4582 132.144 23.5444 132.103 23.6362 132.082C23.7279 132.06 23.8231 132.057 23.9158 132.074C24.0085 132.091 24.0966 132.127 24.1746 132.18C24.2526 132.233 24.3188 132.301 24.369 132.381C24.4191 132.461 24.4522 132.55 24.466 132.643C24.4798 132.736 24.4742 132.831 24.4493 132.921L23.5419 137.955C23.5104 138.11 23.4262 138.248 23.3037 138.347C23.1813 138.446 23.0281 138.5 22.8704 138.499Z" fill="black"/>
</g>
</svg>
