<svg width="163" height="209" viewBox="0 0 163 209" fill="none" xmlns="http://www.w3.org/2000/svg">
<path d="M50.7495 16.2033C46.4597 13.5953 51.5465 10.9873 50.2635 8.2424C47.6132 2.51784 52.2917 -1.98748 60.2427 1.0704C68.3362 4.15436 66.943 6.33204 71.4466 5.38012C75.9502 4.4282 75.4383 7.79252 74.8551 8.81616C80.7389 9.18128 84.8602 15.2905 76.6889 26.0616C69.9756 34.9092 71.8808 39.1928 71.8808 39.1928L54.32 17.7746C54.32 17.7746 53.8275 12.3044 52.9462 9.52684C52.9462 12.8912 48.799 13.3606 50.7495 16.2033Z" fill="#263238"/>
<path d="M74.7709 3.548C77.3176 5.21712 76.2678 7.79252 72.2632 9.67028L74.097 10.9743C78.1665 9.29864 78.5553 4.64988 74.7709 3.548Z" fill="#263238"/>
<path d="M77.6482 24.725C74.6285 29.4194 71.6347 35.5025 74.9006 34.6028C72.9955 38.7104 68.803 37.9997 68.0383 34.2702C67.2737 30.5408 77.6482 24.725 77.6482 24.725Z" fill="#263238"/>
<path d="M59.5041 90.7465C59.5041 90.7465 13.8201 109.211 13.9691 132.142C14.5199 157.922 14.6171 201.619 14.6171 201.619H21.0971C21.0971 201.619 34.0053 164.194 31.9187 135.004C62.9709 122.16 76.6826 116.69 76.6826 116.69L78.6266 92.722L59.5041 90.7465Z" fill="#DF2053"/>
<path opacity="0.2" d="M65.9453 121.019C73.2482 118.052 76.6632 116.69 76.6632 116.69L77.6028 105.064C70.0601 109.029 65.3815 114.388 65.9453 121.019Z" fill="black"/>
<path d="M64.3965 92.722C64.3965 92.722 76.9418 132.331 89.6685 153.919C99.8745 171.197 149.284 199.983 150.781 201.111L154.481 196.886C154.481 196.886 132.832 165.361 109.497 148.546C105.058 129.099 99.1261 110.027 91.755 91.5028L64.3965 92.722Z" fill="#DF2053"/>
<path opacity="0.4" d="M151.766 195.432C151.743 195.431 151.72 195.426 151.698 195.416C151.677 195.406 151.658 195.391 151.643 195.373C117.844 157.211 105.771 148.696 105.635 148.618C105.617 148.606 105.602 148.589 105.59 148.57C105.579 148.551 105.572 148.529 105.57 148.507C105.538 148.285 102.428 126.606 88.0744 97.7555C88.0602 97.7307 88.0527 97.7026 88.0527 97.674C88.0527 97.6454 88.0602 97.6173 88.0744 97.5925C88.0895 97.5697 88.1097 97.5508 88.1333 97.5372C88.1569 97.5236 88.1833 97.5157 88.2105 97.5142C92.2799 97.4816 93.0835 95.2714 93.0899 95.2518C93.1059 95.2119 93.1358 95.1793 93.174 95.1601C93.2122 95.1409 93.256 95.1364 93.2973 95.1475C93.3179 95.1541 93.3369 95.1648 93.3533 95.1789C93.3697 95.1931 93.3832 95.2104 93.3928 95.2298C93.4025 95.2493 93.4082 95.2705 93.4096 95.2921C93.411 95.3138 93.4081 95.3356 93.401 95.3561C93.3686 95.4539 92.5651 97.7098 88.4762 97.8402C102.324 125.798 105.642 147.001 105.849 148.39C106.802 149.074 119.224 158.326 151.857 195.158C151.887 195.188 151.903 195.229 151.903 195.272C151.903 195.315 151.887 195.355 151.857 195.386C151.833 195.411 151.801 195.428 151.766 195.432Z" fill="white"/>
<path d="M161.538 204.644C158.525 201.795 155.635 197.133 152.155 191.5C152.043 191.317 151.894 191.16 151.717 191.039C151.54 190.918 151.34 190.836 151.13 190.798C150.92 190.76 150.704 190.767 150.497 190.818C150.289 190.869 150.095 190.964 149.926 191.096C147.444 193.052 142.539 197.166 144.003 198.607C147.522 202.049 149.667 204.351 143.939 205.127C140.666 205.57 142.792 208.758 145.235 208.758C151.306 208.758 150.872 208.661 154.307 208.543C157.229 208.446 157.929 208.811 160.281 208.758C162.212 208.719 163.184 206.19 161.538 204.644Z" fill="#263238"/>
<path d="M24.1493 204.077C23.6438 202.121 22.944 202.773 23.9937 196.762C24.0479 196.454 24.0389 196.138 23.9673 195.833C23.8957 195.529 23.763 195.242 23.5773 194.991C23.3915 194.74 23.1568 194.53 22.8874 194.374C22.6181 194.217 22.3198 194.118 22.0109 194.082C18.6672 193.697 13.062 193.339 13.224 195.269C13.6322 200.256 9.1027 204.827 1.80622 205.355C-1.43378 205.59 0.354702 208.765 2.74582 208.758C8.72038 208.758 12.9583 208.432 16.3538 208.504C19.2309 208.563 20.3001 208.811 22.62 208.758C24.5121 208.713 24.7195 206.32 24.1493 204.077Z" fill="#263238"/>
<path d="M54.32 27.4699L53.1471 29.152C53.1471 29.152 50.6134 33.8204 47.0689 35.5025L46.2783 34.7462C45.6443 34.1388 45.1543 33.3956 44.8447 32.5716C44.535 31.7477 44.4138 30.8641 44.4898 29.9866L45.9737 25.4226L48.5333 22.6712C48.8799 22.3013 49.3534 22.078 49.8576 22.0465C50.3618 22.015 50.8591 22.1777 51.2485 22.5017L53.9571 24.7576C54.3512 25.077 54.6085 25.5363 54.676 26.0409C54.7435 26.5455 54.6161 27.057 54.32 27.4699Z" fill="#FFB573"/>
<path d="M63.1848 55.5059L62.2064 55.8645L61.3121 56.1709C60.716 56.3731 60.1198 56.5491 59.5301 56.7251C58.3378 57.0772 57.139 57.3771 55.9272 57.6379C53.4649 58.1833 50.9652 58.5407 48.4493 58.7072C45.7794 58.9047 43.0956 58.7866 40.453 58.3551C37.4635 57.9003 34.6048 56.8089 32.0679 55.1538L31.7763 54.9582C30.9781 54.4296 30.3509 53.6775 29.9721 52.7948C29.5933 51.912 29.4794 50.9371 29.6444 49.99C29.8813 48.6562 30.2886 47.3588 30.8561 46.1301C31.3345 45.0849 31.88 44.0722 32.4891 43.0983C33.6093 41.3379 34.8614 39.6661 36.2345 38.0975C37.5694 36.5849 38.954 35.1613 40.3882 33.8269C41.8273 32.4743 43.3418 31.2052 44.9242 30.0257C45.4705 29.6363 46.1336 29.4483 46.8016 29.4935C47.4696 29.5388 48.1017 29.8144 48.5912 30.274C49.0807 30.7336 49.3977 31.349 49.4888 32.0165C49.5798 32.6839 49.4392 33.3624 49.0908 33.9377L49.0196 34.0551C48.0605 35.5482 47.0237 37.0999 46.0647 38.6191C45.1056 40.1382 44.1596 41.677 43.3042 43.1831C42.462 44.6359 41.7026 46.1357 41.0297 47.6754C40.7386 48.3495 40.4918 49.0421 40.291 49.7487C40.1327 50.2561 40.0412 50.7822 40.0188 51.3135L37.6018 46.1497C38.9752 46.7787 40.4506 47.152 41.9564 47.2516C42.8462 47.3306 43.7402 47.3502 44.6326 47.3102C45.5592 47.3102 46.5118 47.232 47.4773 47.1147C49.4589 46.8803 51.4256 46.532 53.3676 46.0714C54.3656 45.8498 55.3505 45.589 56.3355 45.3217L57.8 44.8978L58.5128 44.6892L59.1608 44.4871L59.4588 44.3958C60.8622 44.0792 62.3323 44.2955 63.5868 45.0031C64.8414 45.7107 65.7918 46.8598 66.2555 48.2296C66.7192 49.5994 66.6635 51.0933 66.0991 52.4243C65.5347 53.7553 64.5015 54.8296 63.1978 55.4407L63.1848 55.5059Z" fill="#FFB573"/>
<path d="M61.1694 43.7177C56.2199 44.4281 51.3184 45.4428 46.4922 46.756C48.8444 53.5238 46.0192 61.6151 53.7044 63.5711C61.3897 65.5271 68.6084 42.8506 61.1694 43.7177Z" fill="#263238"/>
<path d="M50.6783 56.2818C50.4839 59.5418 45.4943 67.7765 52.1039 71.6364C52.8426 77.9021 55.6873 89.9902 59.5753 92.722C63.6318 95.982 75.5485 94.7824 90.958 92.8916C91.1445 92.8694 91.3247 92.8094 91.4875 92.7151C91.6503 92.6208 91.7924 92.4942 91.9051 92.343C92.0178 92.1918 92.0988 92.0191 92.1432 91.8355C92.1876 91.6518 92.1944 91.461 92.1632 91.2746C90.6858 82.3031 87.5884 71.7602 90.2192 51.6526C90.3716 50.4908 90.2789 49.3098 89.9472 48.1865C89.6154 47.0632 89.0521 46.0228 88.294 45.1333C87.5358 44.2437 86.5999 43.5249 85.5471 43.0238C84.4944 42.5226 83.3484 42.2503 82.1841 42.2246C80.8881 42.2246 79.4819 42.1855 78.0563 42.2246C72.5353 42.3681 68.0058 42.5376 63.2041 43.3461C61.6101 43.6134 59.9641 43.9394 58.396 44.285C52.7713 45.5238 51.1254 48.7316 50.6783 56.2818Z" fill="#263238"/>
<path d="M62.2709 52.5393C63.1262 54.7104 63.1003 57.1033 61.4349 57.5532C59.7696 58.003 60.7999 54.1041 62.2709 52.5393Z" fill="#FFB573"/>
<path opacity="0.2" d="M89.8046 55.2842L82.7219 50.0291C82.6507 55.0038 85.6898 63.6102 89.2473 69.7912C89.1012 64.9484 89.2874 60.1012 89.8046 55.2842Z" fill="black"/>
<path d="M70.6496 27.1113C70.6496 32.0274 74.4987 39.2646 78.0821 42.2246C72.0049 43.3619 66.4892 46.5355 62.433 51.2288C60.314 46.2149 63.23 43.3461 63.23 43.3461C65.822 41.4683 64.7398 40.0861 63.1263 36.5522L70.6496 27.1113Z" fill="#FFB573"/>
<path opacity="0.2" d="M67.1636 31.4862L63.1201 36.5522C63.5219 37.4064 63.8783 38.1496 64.1699 38.7886C66.1657 38.4822 67.9672 35.8155 68.5244 34.0029C68.9132 32.7446 68.5244 31.8904 67.1636 31.4862Z" fill="black"/>
<path d="M54.1191 23.0689C54.3327 23.7323 54.4004 24.4345 54.3176 25.1268C54.2348 25.8192 54.0035 26.4852 53.6395 27.0787C52.6675 28.4935 50.7883 27.496 49.8941 25.6704C49.0841 24.0273 48.5981 21.315 50.1468 20.5848C51.6955 19.8545 53.5942 21.2433 54.1191 23.0689Z" fill="#FFB573"/>
<path opacity="0.2" d="M54.1191 23.0689C54.3327 23.7323 54.4004 24.4345 54.3176 25.1268C54.2348 25.8192 54.0035 26.4852 53.6395 27.0787C52.6675 28.4935 50.7883 27.496 49.8941 25.6704C49.0841 24.0273 48.5981 21.315 50.1468 20.5848C51.6955 19.8545 53.5942 21.2433 54.1191 23.0689Z" fill="black"/>
<path d="M73.2027 17.24C73.598 25.2922 73.935 28.6956 70.4422 33.2401C65.1934 40.0796 55.4605 38.7756 52.7194 30.9907C50.257 23.9817 50.0238 11.9849 57.3138 7.95552C64.4936 3.95876 72.801 9.1552 73.2027 17.24Z" fill="#FFB573"/>
<path d="M76.6889 18.0485C73.4489 25.5921 70.3126 24.2816 68.6667 21.2498C66.8004 17.8007 67.1244 14.0778 69.8719 12.1218C63.1198 10.1658 55.3632 16.9466 52.7842 11.0786C49.8682 4.46733 64.0853 3.81533 68.6667 6.09081C76.2742 9.88545 78.5616 15.6426 76.6889 18.0485Z" fill="#263238"/>
<path d="M61.0077 19.9328C61.079 20.5848 60.7939 21.152 60.3597 21.1976C59.9256 21.2433 59.5368 20.7543 59.4655 20.1023C59.3942 19.4503 59.6793 18.883 60.1135 18.8374C60.5477 18.7918 60.9365 19.2808 61.0077 19.9328Z" fill="#263238"/>
<path d="M57.9942 29.465C58.0131 29.5697 58.0103 29.6772 57.9861 29.7808C57.9619 29.8844 57.9168 29.9819 57.8535 30.0672C57.7903 30.1525 57.7103 30.2238 57.6185 30.2766C57.5267 30.3295 57.425 30.3628 57.3199 30.3744C57.2148 30.3861 57.1084 30.3758 57.0073 30.3444C56.9063 30.3129 56.8128 30.2608 56.7326 30.1914C56.6524 30.122 56.5873 30.0368 56.5413 29.941C56.4952 29.8452 56.4692 29.7409 56.465 29.6345C56.4461 29.5298 56.4489 29.4223 56.4731 29.3187C56.4973 29.2151 56.5425 29.1176 56.6057 29.0324C56.669 28.9471 56.749 28.8758 56.8408 28.8229C56.9326 28.77 57.0342 28.7368 57.1393 28.7251C57.2444 28.7135 57.3508 28.7237 57.4519 28.7552C57.5529 28.7866 57.6464 28.8387 57.7266 28.9081C57.8068 28.9775 57.8719 29.0627 57.918 29.1586C57.964 29.2544 57.99 29.3587 57.9942 29.465Z" fill="#263238"/>
<path d="M53.0566 20.9303C53.1278 21.5823 52.8427 22.1496 52.4086 22.1952C51.9744 22.2408 51.5856 21.7518 51.5143 21.0998C51.443 20.4478 51.7282 19.8806 52.1623 19.835C52.5965 19.7893 52.9853 20.2783 53.0566 20.9303Z" fill="#263238"/>
<path d="M52.376 19.848L50.7754 19.5676C50.7754 19.5676 51.6761 20.7021 52.376 19.848Z" fill="#263238"/>
<path d="M55.7327 22.0061C55.7327 22.0061 54.9421 24.9336 53.8794 26.4202C54.8255 27.1243 56.2381 26.5962 56.2381 26.5962L55.7327 22.0061Z" fill="#ED893E"/>
<path d="M76.2678 23.8122C75.9888 24.5269 75.562 25.1738 75.0158 25.7099C74.4695 26.2461 73.8161 26.6593 73.0991 26.9222C71.2588 27.5286 70.2479 25.5139 70.6821 23.4079C71.0773 21.5106 72.5029 18.9156 74.3821 19.2416C76.2613 19.5676 77.0454 21.9344 76.2678 23.8122Z" fill="#FFB573"/>
<path d="M62.6533 16.4511C62.6018 16.4445 62.5524 16.4264 62.5086 16.3982C62.4649 16.37 62.428 16.3324 62.4005 16.2881C62.1468 15.8775 61.8004 15.5331 61.3894 15.2827C60.9784 15.0323 60.5145 14.8831 60.0353 14.8472C59.9338 14.8455 59.8368 14.8047 59.7645 14.7331C59.6921 14.6615 59.6499 14.5646 59.6465 14.4625C59.6457 14.4117 59.6549 14.3613 59.6739 14.3142C59.6928 14.2672 59.7209 14.2244 59.7566 14.1885C59.7922 14.1526 59.8347 14.1243 59.8815 14.1053C59.9283 14.0863 59.9784 14.0769 60.0289 14.0778C60.6357 14.1113 61.2255 14.2911 61.7488 14.602C62.2721 14.9129 62.7134 15.3458 63.0356 15.8643C63.0634 15.9066 63.0827 15.9541 63.0922 16.0039C63.1017 16.0537 63.1014 16.105 63.0911 16.1547C63.0809 16.2044 63.061 16.2515 63.0325 16.2935C63.0041 16.3354 62.9677 16.3712 62.9254 16.3989C62.8449 16.4512 62.7473 16.4699 62.6533 16.4511Z" fill="#263238"/>
<path d="M50.6588 17.8007C50.6102 17.8043 50.5613 17.7975 50.5155 17.7806C50.4697 17.7638 50.428 17.7373 50.3932 17.7029C50.3551 17.6699 50.324 17.6296 50.3017 17.5843C50.2794 17.539 50.2664 17.4897 50.2634 17.4392C50.2604 17.3888 50.2674 17.3382 50.2841 17.2906C50.3009 17.2429 50.3269 17.1991 50.3607 17.1618C50.7579 16.6996 51.2593 16.34 51.8231 16.1131C52.3868 15.8862 52.9964 15.7987 53.6007 15.8578C53.7013 15.8733 53.7916 15.9284 53.8517 16.011C53.9119 16.0935 53.937 16.1967 53.9215 16.2979C53.906 16.399 53.8513 16.4899 53.7692 16.5504C53.6872 16.6109 53.5847 16.6362 53.4841 16.6206C53.0047 16.5813 52.5228 16.6579 52.0787 16.8439C51.6347 17.0299 51.2411 17.3199 50.931 17.6899C50.8951 17.7255 50.8526 17.7536 50.8059 17.7726C50.7592 17.7917 50.7092 17.8012 50.6588 17.8007Z" fill="#263238"/>
<path d="M60.3077 18.8504L58.7007 18.5701C58.7007 18.5701 59.6338 19.7046 60.3077 18.8504Z" fill="#263238"/>
<path d="M109.692 91.1181L110.878 99.2486L117.74 95.9103C117.74 95.9103 116.846 89.3447 112.822 88.784L109.692 91.1181Z" fill="#FFB573"/>
<path d="M116.126 101.694L117.383 100.892C117.713 100.68 117.998 100.406 118.221 100.083C118.445 99.7608 118.603 99.3971 118.687 99.013C118.771 98.6289 118.778 98.232 118.709 97.845C118.64 97.458 118.496 97.0886 118.284 96.7579L117.74 95.9103L110.877 99.2486L112.173 100.97C112.622 101.567 113.278 101.973 114.01 102.107C114.742 102.241 115.497 102.093 116.126 101.694Z" fill="#FFB573"/>
<path d="M88.9426 45.5107C92.1372 48.4317 95.1504 51.47 98.1248 54.6387C99.6151 56.2035 101.082 57.8096 102.525 59.457C103.983 61.1066 105.382 62.7757 106.84 64.7121L106.996 64.9142L107.21 65.2207C107.352 65.4228 107.501 65.638 107.592 65.7944L107.897 66.316L108.149 66.7855C108.473 67.4375 108.733 67.9721 108.972 68.5328C109.445 69.6543 109.841 70.7301 110.216 71.7928C110.981 73.9184 111.584 76.0308 112.16 78.1303C113.33 82.3279 114.277 86.5849 114.999 90.8834C115.117 91.5727 114.986 92.2819 114.629 92.8821C114.272 93.4822 113.712 93.9335 113.052 94.1537C112.392 94.374 111.676 94.3487 111.033 94.0823C110.39 93.816 109.863 93.3264 109.549 92.7025C107.605 88.9078 105.804 85.0349 103.983 81.2533C103.095 79.3495 102.155 77.4783 101.255 75.6722C100.794 74.7725 100.328 73.8923 99.8614 73.0968C99.5539 72.496 99.1682 71.939 98.7144 71.4408C97.4573 70.0911 95.9604 68.6306 94.4895 67.1897L89.9535 62.8409C86.9273 59.9395 83.8558 57.0055 80.8815 54.0258C79.9434 52.92 79.4467 51.5031 79.4877 50.0498C79.5287 48.5965 80.1044 47.2103 81.1033 46.1598C82.1022 45.1092 83.4532 44.4692 84.8943 44.3637C86.3355 44.2583 87.7642 44.6949 88.9037 45.589L88.9426 45.5107Z" fill="#FFB573"/>
<path d="M81.3354 42.1986C88.1653 42.3224 92.2024 45.4586 97.0041 52.2524C88.3986 52.298 88.3468 65.475 78.7953 58.8898C72.2569 54.404 73.8445 42.0551 81.3354 42.1986Z" fill="#263238"/>
</svg>
