<svg width="24" height="25" viewBox="0 0 24 25" fill="none" xmlns="http://www.w3.org/2000/svg">
<path fill-rule="evenodd" clip-rule="evenodd" d="M10.4998 2.5C9.14436 2.50012 7.80863 2.82436 6.60402 3.44569C5.39941 4.06702 4.36086 4.96742 3.575 6.07175C2.78914 7.17609 2.27878 8.45235 2.08647 9.79404C1.89417 11.1357 2.02551 12.504 2.46954 13.7846C2.91357 15.0652 3.65741 16.2211 4.639 17.1557C5.62059 18.0904 6.81147 18.7768 8.11228 19.1576C9.41309 19.5384 10.7861 19.6026 12.1168 19.3449C13.4475 19.0872 14.6972 18.515 15.7618 17.676L19.4138 21.328C19.6024 21.5102 19.855 21.611 20.1172 21.6087C20.3794 21.6064 20.6302 21.5012 20.8156 21.3158C21.001 21.1304 21.1062 20.8796 21.1084 20.6174C21.1107 20.3552 21.0099 20.1026 20.8278 19.914L17.1758 16.262C18.1638 15.0086 18.7789 13.5024 18.9509 11.9157C19.1228 10.3291 18.8446 8.72602 18.148 7.29009C17.4514 5.85417 16.3646 4.64336 15.0121 3.79623C13.6595 2.94911 12.0957 2.49989 10.4998 2.5ZM3.99977 11C3.99977 9.27609 4.68458 7.62279 5.90357 6.40381C7.12256 5.18482 8.77586 4.5 10.4998 4.5C12.2237 4.5 13.877 5.18482 15.096 6.40381C16.3149 7.62279 16.9998 9.27609 16.9998 11C16.9998 12.7239 16.3149 14.3772 15.096 15.5962C13.877 16.8152 12.2237 17.5 10.4998 17.5C8.77586 17.5 7.12256 16.8152 5.90357 15.5962C4.68458 14.3772 3.99977 12.7239 3.99977 11Z" fill="#888888"/>
</svg>
