<svg width="530" height="575" viewBox="0 0 530 575" fill="none" xmlns="http://www.w3.org/2000/svg">
<circle cx="245.987" cy="41.0714" r="41.0714" fill="#E0E0E0"/>
<circle cx="412.039" cy="121.448" r="41.0714" fill="#E0E0E0"/>
<circle cx="488.882" cy="287.5" r="41.0714" fill="#E0E0E0"/>
<circle cx="412.039" cy="453.552" r="41.0714" fill="#E0E0E0"/>
<circle cx="245.987" cy="533.929" r="41.0714" fill="#E0E0E0"/>
<circle cx="246.429" cy="287.942" r="246.429" fill="#E0E0E0"/>
<g filter="url(#filter0_d_21_26)">
<circle cx="246.429" cy="287.942" r="166.052" fill="white"/>
</g>
<circle cx="245.987" cy="41.0713" r="33.1221" fill="#C90D3F"/>
<circle cx="412.039" cy="121.448" r="33.1221" fill="#F00F4B"/>
<circle cx="487.116" cy="287.5" r="33.1221" fill="#F22C60"/>
<circle cx="245.987" cy="534.812" r="33.1221" fill="#FD3066"/>
<circle cx="412.039" cy="453.552" r="33.1221" fill="#F9225B"/>
<path d="M244.956 34.1525L242.896 36.2135L246.723 40.0409H231.708V42.9851H246.723L242.896 46.8125L244.956 48.8735L252.317 41.513L244.956 34.1525ZM258.205 51.8177H246.429V54.7619H258.205C259.825 54.7619 261.15 53.437 261.15 51.8177V31.2083C261.15 29.589 259.825 28.2642 258.205 28.2642H246.429V31.2083H258.205V51.8177Z" fill="white"/>
<path d="M425.73 114.529C425.73 117.782 419.797 120.417 412.481 120.417C405.164 120.417 399.232 117.782 399.232 114.529M425.73 114.529C425.73 111.276 419.797 108.641 412.481 108.641C405.164 108.641 399.232 111.276 399.232 114.529M425.73 114.529V121.889M399.232 114.529V121.889M425.73 121.889C425.73 125.143 419.797 127.778 412.481 127.778C405.164 127.778 399.232 125.143 399.232 121.889M425.73 121.889V129.25C425.73 132.503 419.797 135.138 412.481 135.138C405.164 135.138 399.232 132.503 399.232 129.25V121.889" stroke="white" stroke-width="1.76651" stroke-linecap="round" stroke-linejoin="round"/>
<path d="M490.428 282.421H493.74V293.462H490.428V295.67H499.261V293.462H495.949V282.421H499.261V280.213H490.428V282.421ZM486.012 280.213H481.596C480.378 280.213 479.387 281.203 479.387 282.421V295.67H481.596V290.15H486.012V295.67H488.22V282.421C488.22 281.203 487.23 280.213 486.012 280.213ZM481.596 287.942V282.421H486.012V287.942H481.596Z" fill="white"/>
<path d="M412.481 442.217V446.634M406.592 442.217V451.05M418.369 442.217V451.05M412.481 463.563L408.064 465.771L408.801 460.618L405.856 457.674L410.273 456.938L412.481 452.522L414.689 456.938L419.105 457.674L416.161 460.618L416.897 465.771L412.481 463.563Z" stroke="white" stroke-width="1.76651" stroke-linecap="round" stroke-linejoin="round"/>
<path d="M233.18 545.558H259.677V548.502H233.18V545.558ZM237.596 541.142C239.215 541.142 240.54 539.817 240.54 538.198C240.54 537.462 240.246 536.726 239.804 536.284L241.718 532.309H242.012C242.748 532.309 243.484 532.015 243.926 531.573L247.901 533.634V533.781C247.901 535.401 249.226 536.726 250.845 536.726C252.464 536.726 253.789 535.401 253.789 533.781C253.789 533.045 253.495 532.457 253.053 531.868L254.967 527.893H255.261C256.88 527.893 258.205 526.568 258.205 524.949C258.205 523.33 256.88 522.005 255.261 522.005C253.642 522.005 252.317 523.33 252.317 524.949C252.317 525.685 252.611 526.421 253.053 526.863L251.139 530.837H250.845C250.109 530.837 249.373 531.132 248.931 531.573L244.956 529.66V529.365C244.956 527.746 243.632 526.421 242.012 526.421C240.393 526.421 239.068 527.746 239.068 529.365C239.068 530.101 239.362 530.837 239.804 531.279L237.89 535.253H237.596C235.977 535.253 234.652 536.578 234.652 538.198C234.652 539.817 235.977 541.142 237.596 541.142Z" fill="white"/>
<defs>
<filter id="filter0_d_21_26" x="62.7112" y="107.757" width="367.435" height="367.435" filterUnits="userSpaceOnUse" color-interpolation-filters="sRGB">
<feFlood flood-opacity="0" result="BackgroundImageFix"/>
<feColorMatrix in="SourceAlpha" type="matrix" values="0 0 0 0 0 0 0 0 0 0 0 0 0 0 0 0 0 0 127 0" result="hardAlpha"/>
<feOffset dy="3.53303"/>
<feGaussianBlur stdDeviation="8.83257"/>
<feComposite in2="hardAlpha" operator="out"/>
<feColorMatrix type="matrix" values="0 0 0 0 0 0 0 0 0 0 0 0 0 0 0 0 0 0 0.25 0"/>
<feBlend mode="normal" in2="BackgroundImageFix" result="effect1_dropShadow_21_26"/>
<feBlend mode="normal" in="SourceGraphic" in2="effect1_dropShadow_21_26" result="shape"/>
</filter>
</defs>
</svg>
